<svg id="Layer_1" xmlns="http://www.w3.org/2000/svg" version="1.1" xmlns:xlink="http://www.w3.org/1999/xlink" width="100%" height="100%" viewBox="0 0 512 252.2">
  <defs></defs>
  <path class="st0" fill="white" d="M93.6,69.1c-6,7.1-15.6,12.7-25.2,11.9-1.2-9.6,3.5-19.8,9-26.1,6-7.3,16.5-12.5,25-12.9,1,10-2.9,19.8-8.8,27.1M102.3,82.9c-13.9-.8-25.8,7.9-32.4,7.9s-16.8-7.5-27.8-7.3c-14.3.2-27.6,8.3-34.9,21.2-15,25.8-3.9,64,10.6,85,7.1,10.4,15.6,21.8,26.8,21.4,10.6-.4,14.8-6.9,27.6-6.9s16.6,6.9,27.8,6.7c11.6-.2,18.9-10.4,26-20.8,8.1-11.8,11.4-23.3,11.6-23.9-.2-.2-22.4-8.7-22.6-34.3-.2-21.4,17.5-31.6,18.3-32.2-10-14.8-25.6-16.4-31-16.8M182.6,53.9v155.9h24.2v-53.3h33.5c30.6,0,52.1-21,52.1-51.4s-21.1-51.2-51.3-51.2h-58.5ZM206.8,74.3h27.9c21,0,33,11.2,33,30.9s-12,31-33.1,31h-27.8v-61.9ZM336.6,211c15.2,0,29.3-7.7,35.7-19.9h.5v18.7h22.4v-77.6c0-22.5-18-37-45.7-37s-44.7,14.7-45.4,34.9h21.8c1.8-9.6,10.7-15.9,22.9-15.9s23.1,6.9,23.1,19.6v8.6l-30.2,1.8c-28.1,1.7-43.3,13.2-43.3,33.2s15.7,33.6,38.2,33.6ZM343.1,192.5c-12.9,0-21.1-6.2-21.1-15.7s7.9-15.5,23-16.4l26.9-1.7v8.8c0,14.6-12.4,25-28.8,25ZM425.1,252.2c23.6,0,34.7-9,44.4-36.3l42.5-119.2h-24.6l-28.5,92.1h-.5l-28.5-92.1h-25.3l41,113.5-2.2,6.9c-3.7,11.7-9.7,16.2-20.4,16.2s-5.6-.2-7.1-.4v18.7c1.4.4,7.4.6,9.2.6Z"></path>
</svg>